PathFileType	4	(X/Y/Z)	C:/Users/opensim2020/Desktop/walking_exp_matlab/subject01_walking12_straight_03.trc																																																																																																																																		
DataRate	CameraRate	NumFrames	NumMarkers	Units	OrigDataRate	OrigDataStartFrame	OrigNumFrames																																																																																																																														
100	100	7	44	mm	100	1777	172																																																																																																																														
Frame#	Time	LFHD			RFHD			LBHD			RBHD			C7			T10			CLAV			STRN			RBAK			LSHO			LUPA			LELB			LFRM			LWRA			LWRB			LFIN			RSHO			RUPA			RELB			RFRM			RWRA			RWRB			RFIN			LASI			RASI			LPSI			RPSI			LTHI			LKNE			LTIB			LANK			LHEE			LTOE			RTHI			RKNE			RTIB			RANK			RHEE			RTOE			*39			*40			*41			*42			*43		
		X1	Y1	Z1	X2	Y2	Z2	X3	Y3	Z3	X4	Y4	Z4	X5	Y5	Z5	X6	Y6	Z6	X7	Y7	Z7	X8	Y8	Z8	X9	Y9	Z9	X10	Y10	Z10	X11	Y11	Z11	X12	Y12	Z12	X13	Y13	Z13	X14	Y14	Z14	X15	Y15	Z15	X16	Y16	Z16	X17	Y17	Z17	X18	Y18	Z18	X19	Y19	Z19	X20	Y20	Z20	X21	Y21	Z21	X22	Y22	Z22	X23	Y23	Z23	X24	Y24	Z24	X25	Y25	Z25	X26	Y26	Z26	X27	Y27	Z27	X28	Y28	Z28	X29	Y29	Z29	X30	Y30	Z30	X31	Y31	Z31	X32	Y32	Z32	X33	Y33	Z33	X34	Y34	Z34	X35	Y35	Z35	X36	Y36	Z36	X37	Y37	Z37	X38	Y38	Z38	X39	Y39	Z39	X40	Y40	Z40	X41	Y41	Z41	X42	Y42	Z42	X43	Y43	Z43	X44	Y44	Z44
																																																																																																																																					
1	0	-783.26294	1671.57166	-1036.64319	-765.83887	1678.31909	-925.31256	-891.71832	1610.48193	-1024.44446	-875.52118	1615.6051	-905.13	-910.02606	1429.30066	-978.23328	-951.38788	1137.38794	-968.23383	-766.50378	1359.54102	-987.84662	-727.09686	1203.55957	-995.0954	-962.41748	1236.98047	-895.11658	-842.28009	1392.3501	-1143.08459	-901.23883	1215.0094	-1222.17749	-931.41785	1064.73108	-1221.91455	-895.05829	956.71857	-1252.93689	-808.13544	846.81024	-1251.33032	-866.72943	837.34705	-1262.48083	-817.76569	770.13904	-1280.74341	-817.11108	1385.85596	-831.40845	-861.47009	1185.17285	-725.86896	-855.3302	1057.58008	-722.78357	-795.34216	947.65979	-707.39404	-690.31641	859.96234	-749.32721	-725.94299	846.59583	-704.57922	-667.87292	784.88141	-717.24005	-785.03333	932.33899	-1083.56152	-783.34204	923.64124	-866.29669	-970.83221	943.00842	-1032.28455	-969.06995	945.31848	-887.58362	-719.8067	628.20917	-1163.33484	-695.00189	494.86624	-1154.75732	-765.00043	317.88562	-1162.75	-808.43994	101.74963	-1117.4491	-844.4967	72.99571	-1056.07324	-676.6123	49.65815	-1151.1925	-870.48822	591.89514	-830.32196	-881.1275	434.48782	-863.69781	-949.4848	271.4726	-860.78162	-994.15845	72.4894	-919.91022	-1047.77441	37.78247	-969.22968	-856.09357	30.5701	-925.69073	-783.31561	1710.5697	-945.78217	1972.89087	1024.00684	-3102.92627	2013.09509	1022.07886	-3138.67432	NaN	NaN	NaN	NaN	NaN	NaN
2	0.01	-773.08929	1670.63892	-1038.05872	-755.45392	1677.59424	-926.59125	-881.86584	1610.25293	-1025.54529	-865.47711	1615.53076	-906.21808	-900.63812	1428.6748	-979.13031	-942.65466	1136.83032	-968.99847	-757.48706	1358.7074	-988.75305	-718.29895	1202.69324	-995.88318	-953.20245	1236.26233	-895.99268	-833.24969	1391.55969	-1144.02417	-892.67993	1214.08557	-1222.85144	-923.45422	1063.82886	-1221.245	-889.03613	955.1618	-1251.57983	-804.25409	843.62604	-1249.19592	-862.97766	835.29498	-1260.53394	-815.27893	766.8645	-1278.07605	-808.21979	1385.31409	-832.28412	-851.63855	1184.57739	-726.39728	-844.32446	1057.02551	-722.81665	-782.07971	948.32629	-707.82935	-675.53699	862.9635	-750.59143	-710.57593	848.78625	-705.54706	-651.04761	788.65997	-718.18634	-775.58252	931.8667	-1084.32422	-775.27856	922.83612	-866.8205	-961.99689	942.38739	-1033.59778	-960.82629	944.80682	-889.00446	-710.19391	627.72931	-1163.86072	-684.37085	494.43927	-1154.70642	-744.99701	314.36536	-1164.65552	-776.62531	95.52572	-1120.52576	-812.73022	65.01003	-1059.77905	-641.31097	50.84471	-1150.84131	-865.38116	591.61011	-830.85785	-878.138	434.29773	-864.07623	-947.63861	272.02509	-860.99445	-993.87158	73.2341	-920.03235	-1046.89966	38.29018	-969.65717	-855.89752	30.50716	-925.65509	-772.74176	1709.63892	-947.42108	1973.0979	1024.1062	-3102.2002	2013.04639	1022.26575	-3138.46387	NaN	NaN	NaN	NaN	NaN	NaN
3	0.02	-762.94061	1669.64453	-1039.53455	-744.94073	1676.79346	-928.18671	-872.02637	1609.89844	-1026.72668	-855.32922	1615.30298	-907.46442	-891.41168	1428.05212	-980.16168	-933.88904	1136.21082	-969.95721	-748.44324	1357.77234	-989.53448	-709.43024	1201.75989	-996.73962	-944.22986	1235.69226	-896.81549	-824.10449	1390.65613	-1145.16553	-883.99561	1212.96716	-1223.4198	-915.50598	1063.0188	-1220.87366	-882.81885	953.69373	-1250.48669	-800.18268	840.47595	-1247.30518	-859.06238	833.24408	-1258.80835	-812.64825	763.68719	-1275.5061	-799.11768	1384.6438	-833.31207	-841.66394	1183.95117	-726.91187	-833.32135	1056.41882	-722.86792	-768.87335	948.84198	-708.38208	-660.77887	865.8894	-751.60693	-695.36029	850.9024	-706.57489	-634.49109	792.33044	-719.23389	-766.42188	931.28857	-1084.8175	-766.59985	922.2475	-867.5238	-953.01581	941.67554	-1034.98157	-952.55182	944.14532	-890.53894	-700.99927	626.88513	-1164.71777	-674.26648	493.69113	-1154.67554	-725.47662	311.37396	-1166.50696	-744.9494	90.14159	-1123.42566	-780.95038	57.84844	-1063.66602	-606.37476	53.039	-1150.08276	-860.49194	591.52722	-831.21497	-874.72736	434.35892	-864.21051	-945.64667	272.42322	-861.27722	-993.73914	73.93005	-920.22815	-1046.81409	39.80457	-969.93561	-855.91681	30.47234	-925.65936	-762.22931	1708.65454	-949.16107	1972.81177	1024.66345	-3102.85083	2012.99707	1022.34052	-3138.5144	NaN	NaN	NaN	NaN	NaN	NaN
4	0.03	-752.7818	1668.56384	-1041.0968	-734.51642	1675.85645	-929.76123	-862.13074	1609.39978	-1027.96497	-845.22797	1614.95532	-908.68066	-882.28351	1427.43384	-981.33594	-925.09717	1135.58582	-971.06903	-739.26495	1356.88428	-991.09851	-700.55835	1200.73511	-997.72137	-935.26288	1235.14087	-897.72589	-814.97473	1389.69141	-1146.36609	-875.33472	1211.7113	-1224.03625	-907.24835	1062.03601	-1220.53943	-876.48047	952.19788	-1249.52539	-795.9071	837.44	-1245.68262	-854.94043	831.23444	-1257.33118	-809.85864	760.5174	-1273.27686	-789.80371	1383.77002	-834.49323	-831.6698	1183.2052	-727.59656	-822.16821	1055.78711	-723.03571	-755.72552	949.36737	-708.95581	-646.1864	868.71033	-752.71094	-680.91412	852.97266	-707.65192	-618.14923	795.81818	-720.29315	-756.8175	930.7619	-1085.58484	-758.54669	921.31458	-868.08179	-943.83618	940.74091	-1036.55444	-944.15143	943.5177	-892.15784	-692.63434	625.45404	-1165.453	-664.59753	492.67624	-1154.68188	-706.56409	308.80255	-1168.26477	-713.73279	85.64248	-1126.31445	-749.22382	51.81023	-1067.45972	-572.46887	56.07512	-1149.20032	-855.1958	591.50092	-831.71625	-871.84802	434.18677	-864.64331	-943.78784	273.19577	-861.56293	-992.92743	74.59182	-920.40582	-1046.16248	40.57173	-970.32764	-855.76422	30.42407	-925.64435	-751.68695	1708.00122	-950.47675	1972.95142	1024.05554	-3102.4834	2013.07947	1022.20911	-3138.64087	NaN	NaN	NaN	NaN	NaN	NaN
5	0.04	-742.63257	1667.45776	-1042.70972	-724.15906	1674.84119	-931.37341	-852.18262	1608.76428	-1029.2821	-834.99243	1614.40173	-910.08258	-872.73657	1426.62061	-982.53802	-916.28827	1134.86035	-972.36053	-730.047	1355.81323	-992.354	-691.64233	1199.65222	-998.7337	-926.31781	1234.58887	-898.67493	-805.72845	1388.67773	-1147.7865	-866.54968	1210.39441	-1224.85437	-898.87561	1060.93201	-1220.36743	-869.87018	950.62744	-1248.79895	-791.54706	834.12378	-1244.07971	-850.62347	829.21619	-1255.8689	-806.90186	757.43201	-1271.31519	-780.55255	1382.94495	-835.79315	-821.58514	1182.42249	-728.2403	-811.08655	1055.10059	-723.25293	-742.68176	949.8103	-709.56396	-631.95789	871.28076	-753.84515	-665.61005	854.72284	-708.73914	-602.27618	799.13434	-721.3371	-747.1825	930.13544	-1086.26355	-750.46649	920.64368	-868.71277	-934.56915	939.68707	-1038.2251	-935.61096	942.70764	-894.02448	-684.34467	623.94513	-1166.57397	-655.18201	491.43253	-1154.63403	-688.33881	306.59802	-1169.87134	-683.31622	82.32977	-1129.1897	-718.47595	46.76445	-1071.25818	-539.95477	60.14329	-1148.3457	-849.71509	591.38855	-832.18665	-867.29657	434.31393	-864.73706	-942.01251	273.97446	-861.93237	-992.49982	75.68925	-920.65985	-1046.18005	42.41468	-970.71027	-855.65845	30.4189	-925.56433	-740.91162	1706.93909	-952.04785	1972.98938	1024.1134	-3102.63623	NaN	NaN	NaN	NaN	NaN	NaN	NaN	NaN	NaN
6	0.05	-732.42615	1666.23267	-1044.40222	-713.849	1673.57446	-933.24335	-842.21692	1608.03149	-1030.70593	-824.81262	1613.7804	-911.54034	-863.41858	1425.88232	-983.96136	-907.36707	1134.08887	-973.80316	-720.87982	1354.71191	-993.65997	-682.64801	1198.48267	-999.78033	-917.29742	1233.98083	-899.78882	-796.42938	1387.45044	-1149.12036	-857.69293	1208.9447	-1225.64612	-890.26697	1059.76184	-1220.31531	-863.0968	949.14642	-1248.22644	-786.91974	831.04279	-1242.79175	-846.02747	827.26215	-1254.68201	-803.69226	754.49481	-1269.48523	-771.18127	1382.16162	-837.04492	-811.49371	1181.62292	-729.05988	-799.87592	1054.38159	-723.58203	-729.72589	950.18817	-710.24078	-617.86292	873.63873	-755.03223	-651.12769	856.44971	-709.84497	-586.75946	802.19373	-722.4101	-737.45587	929.43597	-1086.95557	-742.07428	920.16785	-869.39288	-925.08264	938.50482	-1040.02783	-927.03143	941.96796	-895.95825	-676.93665	621.47571	-1167.60547	-646.00494	490.04898	-1154.49829	-670.6463	304.79282	-1171.30713	-654.09027	80.3001	-1131.90967	-688.60406	42.82103	-1074.92249	-509.47128	65.03765	-1148.17847	-844.23517	591.3689	-832.55884	-863.44385	434.55099	-865.12793	-939.06116	274.66205	-862.53668	-992.13184	76.82556	-920.89197	-1045.53467	43.5709	-971.21985	-855.36438	30.32167	-925.54993	-730.59601	1705.69043	-954.2027	1973.13672	1024.05237	-3102.30566	2013.06897	1022.42358	-3138.58667	NaN	NaN	NaN	NaN	NaN	NaN
7	0.06	-722.23419	1665.01819	-1046.12451	-703.34186	1672.5105	-934.86969	-832.22308	1607.22473	-1032.20056	-814.60638	1613.01648	-913.05109	-854.12683	1425.09912	-985.45953	-898.36255	1133.23999	-975.48901	-711.59192	1353.44226	-995.08649	-673.59393	1197.30188	-1000.87738	-908.60089	1233.5968	-900.93097	-786.97949	1386.26367	-1150.65552	-848.70917	1207.42554	-1226.58667	-881.59503	1058.50452	-1220.38672	-856.09546	947.54028	-1247.8186	-782.06635	828.10272	-1241.71692	-841.22522	825.34241	-1253.70386	-800.25391	751.60712	-1267.94629	-761.76947	1381.10583	-838.67572	-801.23688	1180.87036	-729.89355	-788.6131	1053.68066	-723.95715	-716.84143	950.50983	-710.97913	-603.91565	875.85229	-755.91364	-636.96332	858.08411	-710.92804	-571.6402	805.05652	-723.5766	-727.5246	928.59003	-1087.69116	-733.81836	919.55322	-870.12885	-915.51697	937.19238	-1041.94043	-918.42078	941.12592	-898.15118	-669.73621	619.1261	-1168.7561	-637.00348	488.56555	-1154.4375	-653.44269	303.34924	-1172.48059	-626.12061	79.5556	-1134.48694	-660.07574	39.83564	-1078.15881	-480.59332	70.53591	-1148.23999	-838.28992	591.341	-833.02258	-858.45178	434.22845	-865.35822	-936.50848	275.47232	-863.17688	-991.31049	77.93977	-921.24231	-1045.60645	45.84221	-971.6825	-855.38873	30.25919	-925.55127	-720.07452	1704.18921	-956.23206	1972.81458	1023.90826	-3102.86475	2013.00293	1022.15594	-3138.76807	NaN	NaN	NaN	NaN	NaN	NaN
